<svg viewBox="0 0 500 500" xmlns="http://www.w3.org/2000/svg">
  <defs></defs>
  <g transform="matrix(0, -0.975846, 0.975846, 0, 0, 499.633911)" style="">
    <g>
      <path d="M368.787,81.377H143.213c-34.097,0-61.837,27.739-61.837,61.837v225.574c0,34.097,27.739,61.837,61.837,61.837h225.574
			c34.097,0,61.837-27.739,61.837-61.837V143.213C430.623,109.116,402.884,81.377,368.787,81.377z M409.64,368.787
			c0,22.527-18.327,40.853-40.853,40.853H143.213c-22.527,0-40.853-18.327-40.853-40.853V143.213
			c0-22.527,18.327-40.853,40.853-40.853h225.574c22.527,0,40.853,18.327,40.853,40.853V368.787z" style="fill: rgb(156, 156, 156);"></path>
    </g>
  </g>
  <g transform="matrix(0, -0.975846, 0.975846, 0, 0, 499.633911)" style="">
    <g>
      <path d="M386.098,135.85c-5.794,0-10.492,4.698-10.492,10.492v6.654c0,5.794,4.698,10.492,10.492,10.492
			s10.492-4.698,10.492-10.492v-6.654C396.59,140.548,391.892,135.85,386.098,135.85z" style="fill: rgb(156, 156, 156);"></path>
    </g>
  </g>
  <g transform="matrix(0, -0.975846, 0.975846, 0, 0, 499.633911)" style="">
    <g>
      <path d="M386.098,180.21c-5.794,0-10.492,4.698-10.492,10.492v179.659c0,5.794,4.698,10.492,10.492,10.492
			s10.492-4.698,10.492-10.492V190.702C396.59,184.908,391.892,180.21,386.098,180.21z" style="fill: rgb(156, 156, 156);"></path>
    </g>
  </g>
  <g transform="matrix(0, -0.975846, 0.975846, 0, 0, 499.633911)" style="">
    <g>
      <path d="M501.508,178.256c5.794,0,10.492-4.698,10.492-10.492V87.187c0-5.794-4.698-10.492-10.492-10.492h-25.415V46.223
			c0-5.794-4.698-10.492-10.492-10.492h-30.296V10.492C435.305,4.698,430.607,0,424.813,0h-80.577
			c-5.794,0-10.492,4.698-10.492,10.492v25.239H306.78V10.492C306.78,4.698,302.082,0,296.289,0h-80.577
			c-5.794,0-10.492,4.698-10.492,10.492v25.239h-26.964V10.492C178.256,4.698,173.557,0,167.764,0H87.187
			c-5.794,0-10.492,4.698-10.492,10.492v25.239H46.399c-5.794,0-10.492,4.698-10.492,10.492v30.472H10.492
			C4.698,76.695,0,81.393,0,87.187v80.577c0,5.794,4.698,10.492,10.492,10.492h25.415v26.964H10.492
			C4.698,205.22,0,209.918,0,215.711v80.577c0,5.794,4.698,10.492,10.492,10.492h25.415v26.964H10.492
			C4.698,333.744,0,338.443,0,344.236v80.577c0,5.794,4.698,10.492,10.492,10.492h25.415v30.472c0,5.794,4.698,10.492,10.492,10.492
			h30.296v25.239c0,5.794,4.698,10.492,10.492,10.492h80.577c5.794,0,10.492-4.698,10.492-10.492v-25.239h26.964v25.239
			c0,5.794,4.698,10.492,10.492,10.492h80.577c5.794,0,10.492-4.698,10.492-10.492v-25.239h26.964v25.239
			c0,5.794,4.698,10.492,10.492,10.492h80.577c5.794,0,10.492-4.698,10.492-10.492v-25.239h30.296
			c5.794,0,10.492-4.698,10.492-10.492v-30.472h25.415c5.794,0,10.492-4.698,10.492-10.492v-80.577
			c0-5.794-4.698-10.492-10.492-10.492h-25.415V306.78h25.415c5.794,0,10.492-4.698,10.492-10.492v-80.577
			c0-5.794-4.698-10.492-10.492-10.492h-25.415v-26.964H501.508z M476.269,97.679h14.747v59.593h-14.747V97.679z M35.731,157.272
			H20.984V97.679h14.747V157.272z M35.731,285.797H20.984v-59.593h14.747V285.797z M35.731,414.321H20.984v-59.593h14.747V414.321z
			 M354.728,20.984h59.593v14.747h-59.593V20.984z M226.203,20.984h59.593v14.747h-59.593V20.984z M97.679,20.984h59.593v14.747
			H97.679V20.984z M157.272,491.016H97.679v-14.747h59.593V491.016z M285.797,491.016h-59.593v-14.747h59.593V491.016z
			 M414.321,491.016h-59.593v-14.747h59.593V491.016z M455.11,455.287H56.891v-0.001V56.714h398.22V455.287z M476.269,354.728
			h14.747v59.593h-14.747V354.728z M476.269,226.203h14.747v59.593h-14.747V226.203z" style="fill: rgb(156, 156, 156);"></path>
    </g>
  </g>
  <g transform="matrix(0, -0.643033, 0.643033, 0, 0, 329.233582)" style=""></g>
  <g transform="matrix(0, -0.643033, 0.643033, 0, 0, 329.233582)" style=""></g>
  <g transform="matrix(0, -0.643033, 0.643033, 0, 0, 329.233582)" style=""></g>
  <g transform="matrix(0, -0.643033, 0.643033, 0, 0, 329.233582)" style=""></g>
  <g transform="matrix(0, -0.643033, 0.643033, 0, 0, 329.233582)" style=""></g>
  <g transform="matrix(0, -0.643033, 0.643033, 0, 0, 329.233582)" style=""></g>
  <g transform="matrix(0, -0.643033, 0.643033, 0, 0, 329.233582)" style=""></g>
  <g transform="matrix(0, -0.643033, 0.643033, 0, 0, 329.233582)" style=""></g>
  <g transform="matrix(0, -0.643033, 0.643033, 0, 0, 329.233582)" style=""></g>
  <g transform="matrix(0, -0.643033, 0.643033, 0, 0, 329.233582)" style=""></g>
  <g transform="matrix(0, -0.643033, 0.643033, 0, 0, 329.233582)" style=""></g>
  <g transform="matrix(0, -0.643033, 0.643033, 0, 0, 329.233582)" style=""></g>
  <g transform="matrix(0, -0.643033, 0.643033, 0, 0, 329.233582)" style=""></g>
  <g transform="matrix(0, -0.643033, 0.643033, 0, 0, 329.233582)" style=""></g>
  <g transform="matrix(0, -0.643033, 0.643033, 0, 0, 329.233582)" style=""></g>
  <rect x="243.683" y="250.012" style="fill: rgb(254, 225, 135);" width="68.931" height="68.931"></rect>
  <g transform="matrix(0.342473, 0, 0, 0.342473, 191.077316, 196.80307)" style="">
    <path style="fill:#FFC61B;" d="M354.876,371.827H153.604c-8.388,0-15.191-6.802-15.191-15.191V155.364
		c0-8.388,6.802-15.191,15.191-15.191h201.272c8.388,0,15.191,6.802,15.191,15.191v201.272
		C370.067,365.026,363.266,371.827,354.876,371.827z M168.795,341.445h170.891V170.555H168.795V341.445z"></path>
    <path style="fill:#FFC61B;" d="M421.337,407.906H102.334V104.094h72.915c2.576,0,4.999-0.647,7.124-1.777
		c6.646-1.621,11.584-7.598,11.584-14.742V16.95c0-8.388-6.802-15.191-15.191-15.191c-8.388,0-15.191,6.802-15.191,15.191v56.763
		H87.144c-8.388,0-15.191,6.802-15.191,15.191v72.915H15.191C6.802,161.818,0,168.621,0,177.009S6.802,192.2,15.191,192.2h56.763
		v48.61H45.591c-8.388,0-15.191,6.802-15.191,15.191s6.802,15.191,15.191,15.191h26.362v48.61H15.191
		C6.802,319.8,0,326.603,0,334.991s6.802,15.191,15.191,15.191h56.763v72.915c0,8.388,6.802,15.191,15.191,15.191h72.915v56.763
		c0,8.388,6.802,15.191,15.191,15.191c8.388,0,15.191-6.802,15.191-15.191v-56.763h48.61v26.362c0,8.388,6.802,15.191,15.191,15.191
		c8.388,0,15.191-6.802,15.191-15.191v-26.362h48.61v56.763c0,8.388,6.802,15.191,15.191,15.191s15.191-6.802,15.191-15.191v-56.763
		h72.915c8.388,0,15.191-6.802,15.191-15.191S429.726,407.906,421.337,407.906z"></path>
    <path style="fill:#FFC61B;" d="M496.809,319.8h-56.763v-48.61h26.362c8.388,0,15.191-6.802,15.191-15.191
		s-6.802-15.191-15.191-15.191h-26.362V192.2h56.763c8.388,0,15.191-6.802,15.191-15.191c0-8.388-6.802-15.191-15.191-15.191
		h-56.763V88.904c0-8.388-6.802-15.191-15.191-15.191h-72.915V16.95c0-8.388-6.802-15.191-15.191-15.191S321.56,8.562,321.56,16.95
		v56.763h-48.61V47.351c0-8.388-6.802-15.191-15.191-15.191s-15.191,6.802-15.191,15.191v40.223c0,0.225,0.024,0.444,0.033,0.665
		c-0.009,0.222-0.033,0.441-0.033,0.665c0,8.388,6.802,15.191,15.191,15.191h151.906v223.285c-1.429,2.241-2.189,4.835-2.189,7.612
		c0,8.388,6.802,15.191,15.191,15.191h70.624c8.388,0,15.191-6.802,15.191-15.191S501.68,319.8,496.809,319.8z"></path>
  </g>
  <g transform="matrix(0.170487, 0, 0, 0.170487, 131.5298, 143.375549)" style=""></g>
  <g transform="matrix(0.170487, 0, 0, 0.170487, 131.5298, 143.375549)" style=""></g>
  <g transform="matrix(0.170487, 0, 0, 0.170487, 131.5298, 143.375549)" style=""></g>
  <g transform="matrix(0.170487, 0, 0, 0.170487, 131.5298, 143.375549)" style=""></g>
  <g transform="matrix(0.170487, 0, 0, 0.170487, 131.5298, 143.375549)" style=""></g>
  <g transform="matrix(0.170487, 0, 0, 0.170487, 131.5298, 143.375549)" style=""></g>
  <g transform="matrix(0.170487, 0, 0, 0.170487, 131.5298, 143.375549)" style=""></g>
  <g transform="matrix(0.170487, 0, 0, 0.170487, 131.5298, 143.375549)" style=""></g>
  <g transform="matrix(0.170487, 0, 0, 0.170487, 131.5298, 143.375549)" style=""></g>
  <g transform="matrix(0.170487, 0, 0, 0.170487, 131.5298, 143.375549)" style=""></g>
  <g transform="matrix(0.170487, 0, 0, 0.170487, 131.5298, 143.375549)" style=""></g>
  <g transform="matrix(0.170487, 0, 0, 0.170487, 131.5298, 143.375549)" style=""></g>
  <g transform="matrix(0.170487, 0, 0, 0.170487, 131.5298, 143.375549)" style=""></g>
  <g transform="matrix(0.170487, 0, 0, 0.170487, 131.5298, 143.375549)" style=""></g>
  <g transform="matrix(0.170487, 0, 0, 0.170487, 131.5298, 143.375549)" style=""></g>
  <title>ONE-xicons</title>
  <path d="M 276.526 306.392 L 276.406 306.392 L 276.036 306.292 L 276.036 288.382 L 262.506 288.382 C 261.351 288.379 260.632 287.128 261.212 286.129 C 261.213 286.126 261.215 286.124 261.216 286.122 L 276.216 260.552 C 276.493 260.089 277.167 260.101 277.428 260.572 C 277.483 260.67 277.513 260.78 277.516 260.892 L 277.926 277.502 L 291.696 277.502 C 292.851 277.5 293.575 278.748 292.999 279.749 C 292.995 279.757 292.991 279.764 292.986 279.772 C 291.236 282.682 287.256 289.282 283.706 295.152 C 277.486 305.432 276.896 306.392 276.526 306.392 Z M 276.526 261.962 L 262.066 286.622 C 261.874 286.954 262.113 287.369 262.496 287.372 L 277.036 287.372 L 277.036 304.172 C 279.386 300.372 286.036 289.452 292.126 279.242 C 292.217 279.087 292.217 278.896 292.126 278.742 C 292.037 278.583 291.868 278.487 291.686 278.492 L 276.976 278.492 Z" style="stroke-width: 11px;"></path>
  <rect width="48" height="48" fill="none" transform="matrix(1, 0, 0, 1, 481.428229, 224.793729)"></rect>
</svg>